<svg version="1.1" viewBox="0.0 0.0 800.0 240.0" fill="none" stroke="none" stroke-linecap="square" stroke-miterlimit="10" xmlns:xlink="http://www.w3.org/1999/xlink" xmlns="http://www.w3.org/2000/svg"><clipPath id="p.0"><path d="m0 0l800.0 0l0 240.0l-800.0 0l0 -240.0z" clip-rule="nonzero"/></clipPath><g clip-path="url(#p.0)"><path fill="#ffffff" d="m0 0l960.0 0l0 240.0l-800.0 0z" fill-rule="evenodd"/><path fill="#000000" fill-opacity="0.0" d="m102.04724 177.6378l30.236221 0l0 22.677155l-30.236221 0z" fill-rule="evenodd"/><path fill="#000000" d="m113.39965 193.77638l0 -9.546875l4.234375 0q1.265625 0 1.921875 0.265625q0.671875 0.25 1.0625 0.90625q0.40625 0.65625 0.40625 1.4375q0 1.015625 -0.65625 1.71875q-0.65625 0.6875 -2.03125 0.875q0.5 0.25 0.765625 0.484375q0.546875 0.5 1.046875 1.265625l1.65625 2.59375l-1.578125 0l-1.265625 -1.984375q-0.5625 -0.859375 -0.921875 -1.3125q-0.34375 -0.453125 -0.640625 -0.640625q-0.28125 -0.1875 -0.5625 -0.25q-0.21875 -0.046875 -0.703125 -0.046875l-1.46875 0l0 4.234375l-1.265625 0zm1.265625 -5.328125l2.71875 0q0.859375 0 1.34375 -0.171875q0.484375 -0.1875 0.734375 -0.578125q0.265625 -0.390625 0.265625 -0.859375q0 -0.671875 -0.5 -1.109375q-0.484375 -0.4375 -1.546875 -0.4375l-3.015625 0l0 3.15625z" fill-rule="nonzero"/><path fill="#000000" fill-opacity="0.0" d="m139.84251 177.6378l30.236221 0l0 22.677155l-30.236221 0z" fill-rule="evenodd"/><path fill="#000000" d="m151.19493 193.77638l0 -9.546875l4.234375 0q1.265625 0 1.921875 0.265625q0.671875 0.25 1.0625 0.90625q0.40625 0.65625 0.40625 1.4375q0 1.015625 -0.65625 1.71875q-0.65625 0.6875 -2.03125 0.875q0.5 0.25 0.765625 0.484375q0.546875 0.5 1.046875 1.265625l1.65625 2.59375l-1.578125 0l-1.265625 -1.984375q-0.5625 -0.859375 -0.921875 -1.3125q-0.34375 -0.453125 -0.640625 -0.640625q-0.28125 -0.1875 -0.5625 -0.25q-0.21875 -0.046875 -0.703125 -0.046875l-1.46875 0l0 4.234375l-1.265625 0zm1.265625 -5.328125l2.71875 0q0.859375 0 1.34375 -0.171875q0.484375 -0.1875 0.734375 -0.578125q0.265625 -0.390625 0.265625 -0.859375q0 -0.671875 -0.5 -1.109375q-0.484375 -0.4375 -1.546875 -0.4375l-3.015625 0l0 3.15625z" fill-rule="nonzero"/><path fill="#000000" fill-opacity="0.0" d="m177.6378 173.85826l30.236206 0l0 22.67717l-30.236206 0z" fill-rule="evenodd"/><path fill="#000000" d="m195.22458 180.44998l1.265625 0l0 5.515625q0 1.4375 -0.328125 2.296875q-0.3125 0.84375 -1.171875 1.375q-0.84375 0.515625 -2.21875 0.515625q-1.34375 0 -2.203125 -0.453125q-0.84375 -0.46875 -1.21875 -1.34375q-0.359375 -0.875 -0.359375 -2.390625l0 -5.515625l1.265625 0l0 5.515625q0 1.234375 0.21875 1.828125q0.234375 0.59375 0.796875 0.921875q0.5625 0.3125 1.390625 0.3125q1.390625 0 1.96875 -0.625q0.59375 -0.640625 0.59375 -2.4375l0 -5.515625z" fill-rule="nonzero"/><path fill="#000000" fill-opacity="0.0" d="m177.6378 136.06299l30.236206 0l0 22.67717l-30.236206 0z" fill-rule="evenodd"/><path fill="#000000" d="m195.22458 142.6547l1.265625 0l0 5.515625q0 1.4375 -0.328125 2.296875q-0.3125 0.84375 -1.171875 1.375q-0.84375 0.515625 -2.21875 0.515625q-1.34375 0 -2.203125 -0.453125q-0.84375 -0.46875 -1.21875 -1.34375q-0.359375 -0.875 -0.359375 -2.390625l0 -5.515625l1.265625 0l0 5.515625q0 1.234375 0.21875 1.828125q0.234375 0.59375 0.796875 0.921875q0.5625 0.3125 1.390625 0.3125q1.390625 0 1.96875 -0.625q0.59375 -0.640625 0.59375 -2.4375l0 -5.515625z" fill-rule="nonzero"/><path fill="#000000" fill-opacity="0.0" d="m177.6378 102.04724l30.236206 0l0 22.67717l-30.236206 0z" fill-rule="evenodd"/><path fill="#000000" d="m195.22458 108.638954l1.265625 0l0 5.515625q0 1.4375 -0.328125 2.296875q-0.3125 0.84375 -1.171875 1.375q-0.84375 0.515625 -2.21875 0.515625q-1.34375 0 -2.203125 -0.453125q-0.84375 -0.46875 -1.21875 -1.34375q-0.359375 -0.875 -0.359375 -2.390625l0 -5.515625l1.265625 0l0 5.515625q0 1.234375 0.21875 1.828125q0.234375 0.59375 0.796875 0.921875q0.5625 0.3125 1.390625 0.3125q1.390625 0 1.96875 -0.625q0.59375 -0.640625 0.59375 -2.4375l0 -5.515625z" fill-rule="nonzero"/><path fill="#000000" fill-opacity="0.0" d="m177.6378 68.031494l30.236206 0l0 22.67717l-30.236206 0z" fill-rule="evenodd"/><path fill="#000000" d="m188.9902 84.17008l0 -9.546875l4.234375 0q1.265625 0 1.921875 0.265625q0.671875 0.25 1.0625 0.90625q0.40625 0.65625 0.40625 1.4375q0 1.015625 -0.65625 1.71875q-0.65625 0.6875 -2.03125 0.875q0.5 0.25 0.765625 0.484375q0.546875 0.5 1.046875 1.265625l1.65625 2.59375l-1.578125 0l-1.265625 -1.984375q-0.5625 -0.859375 -0.921875 -1.3125q-0.34375 -0.453125 -0.640625 -0.640625q-0.28125 -0.1875 -0.5625 -0.25q-0.21875 -0.046875 -0.703125 -0.046875l-1.46875 0l0 4.234375l-1.265625 0zm1.265625 -5.328125l2.71875 0q0.859375 0 1.34375 -0.171875q0.484375 -0.1875 0.734375 -0.578125q0.265625 -0.390625 0.265625 -0.859375q0 -0.671875 -0.5 -1.109375q-0.484375 -0.4375 -1.546875 -0.4375l-3.015625 0l0 3.15625z" fill-rule="nonzero"/><path fill="#000000" fill-opacity="0.0" d="m215.43307 68.031494l30.236221 0l0 22.67717l-30.236221 0z" fill-rule="evenodd"/><path fill="#000000" d="m226.78548 84.17008l0 -9.546875l4.234375 0q1.265625 0 1.921875 0.265625q0.671875 0.25 1.0625 0.90625q0.40625 0.65625 0.40625 1.4375q0 1.015625 -0.65625 1.71875q-0.65625 0.6875 -2.03125 0.875q0.5 0.25 0.765625 0.484375q0.546875 0.5 1.046875 1.265625l1.65625 2.59375l-1.578125 0l-1.265625 -1.984375q-0.5625 -0.859375 -0.921875 -1.3125q-0.34375 -0.453125 -0.640625 -0.640625q-0.28125 -0.1875 -0.5625 -0.25q-0.21875 -0.046875 -0.703125 -0.046875l-1.46875 0l0 4.234375l-1.265625 0zm1.265625 -5.328125l2.71875 0q0.859375 0 1.34375 -0.171875q0.484375 -0.1875 0.734375 -0.578125q0.265625 -0.390625 0.265625 -0.859375q0 -0.671875 -0.5 -1.109375q-0.484375 -0.4375 -1.546875 -0.4375l-3.015625 0l0 3.15625z" fill-rule="nonzero"/><path fill="#000000" fill-opacity="0.0" d="m257.00787 64.25197l30.236206 0l0 22.677162l-30.236206 0z" fill-rule="evenodd"/><path fill="#000000" d="m274.59467 70.84367l1.265625 0l0 5.515625q0 1.4375 -0.328125 2.296875q-0.3125 0.84375 -1.171875 1.375q-0.84375 0.515625 -2.21875 0.515625q-1.34375 0 -2.203125 -0.453125q-0.84375 -0.46875 -1.21875 -1.34375q-0.359375 -0.875 -0.359375 -2.390625l0 -5.515625l1.265625 0l0 5.515625q0 1.234375 0.21875 1.828125q0.234375 0.59375 0.796875 0.921875q0.5625 0.3125 1.390625 0.3125q1.390625 0 1.96875 -0.625q0.59375 -0.640625 0.59375 -2.4375l0 -5.515625z" fill-rule="nonzero"/><path fill="#000000" fill-opacity="0.0" d="m253.22835 30.236221l30.236221 0l0 22.677166l-30.236221 0z" fill-rule="evenodd"/><path fill="#000000" d="m264.58075 46.3748l0 -9.546875l4.234375 0q1.265625 0 1.921875 0.265625q0.671875 0.25 1.0625 0.90625q0.40625 0.65625 0.40625 1.4375q0 1.015625 -0.65625 1.71875q-0.65625 0.6875 -2.03125 0.875q0.5 0.25 0.765625 0.484375q0.546875 0.5 1.046875 1.265625l1.65625 2.59375l-1.578125 0l-1.265625 -1.984375q-0.5625 -0.859375 -0.921875 -1.3125q-0.34375 -0.453125 -0.640625 -0.640625q-0.28125 -0.1875 -0.5625 -0.25q-0.21875 -0.046875 -0.703125 -0.046875l-1.46875 0l0 4.234375l-1.265625 0zm1.265625 -5.328125l2.71875 0q0.859375 0 1.34375 -0.171875q0.484375 -0.1875 0.734375 -0.578125q0.265625 -0.390625 0.265625 -0.859375q0 -0.671875 -0.5 -1.109375q-0.484375 -0.4375 -1.546875 -0.4375l-3.015625 0l0 3.15625z" fill-rule="nonzero"/><path fill="#000000" fill-opacity="0.0" d="m291.02362 30.236221l30.236237 0l0 22.677166l-30.236237 0z" fill-rule="evenodd"/><path fill="#000000" d="m302.37604 46.3748l0 -9.546875l4.234375 0q1.265625 0 1.921875 0.265625q0.671875 0.25 1.0625 0.90625q0.40625 0.65625 0.40625 1.4375q0 1.015625 -0.65625 1.71875q-0.65625 0.6875 -2.03125 0.875q0.5 0.25 0.765625 0.484375q0.546875 0.5 1.046875 1.265625l1.65625 2.59375l-1.578125 0l-1.265625 -1.984375q-0.5625 -0.859375 -0.921875 -1.3125q-0.34375 -0.453125 -0.640625 -0.640625q-0.28125 -0.1875 -0.5625 -0.25q-0.21875 -0.046875 -0.703125 -0.046875l-1.46875 0l0 4.234375l-1.265625 0zm1.265625 -5.328125l2.71875 0q0.859375 0 1.34375 -0.171875q0.484375 -0.1875 0.734375 -0.578125q0.265625 -0.390625 0.265625 -0.859375q0 -0.671875 -0.5 -1.109375q-0.484375 -0.4375 -1.546875 -0.4375l-3.015625 0l0 3.15625z" fill-rule="nonzero"/><path fill="#000000" fill-opacity="0.0" d="m45.354332 192.7559l45.354332 0l0 22.67717l-45.354332 0z" fill-rule="evenodd"/><path fill="#000000" d="m57.45416 211.70699q-0.984375 -1.234375 -1.65625 -2.875q-0.65625 -1.640625 -0.65625 -3.390625q0 -1.546875 0.5 -2.96875q0.578125 -1.640625 1.8125 -3.28125l0.828125 0q-0.78125 1.359375 -1.03125 1.9375q-0.40625 0.890625 -0.625 1.875q-0.28125 1.21875 -0.28125 2.4375q0 3.140625 1.9375 6.265625l-0.828125 0zm8.016491 -3.9375l0 1.125l-6.296871 0q-0.015625 -0.421875 0.140625 -0.8125q0.234375 -0.640625 0.765625 -1.265625q0.53125 -0.625 1.53125 -1.453125q1.5625 -1.265625 2.109375 -2.015625q0.5468712 -0.75 0.5468712 -1.40625q0 -0.703125 -0.4999962 -1.171875q-0.5 -0.484375 -1.296875 -0.484375q-0.859375 0 -1.375 0.515625q-0.5 0.5 -0.5 1.390625l-1.203125 -0.109375q0.125 -1.359375 0.921875 -2.0625q0.8125 -0.703125 2.171875 -0.703125q1.375 0 2.1718712 0.765625q0.8125 0.75 0.8125 1.875q0 0.578125 -0.234375 1.140625q-0.234375 0.546875 -0.78125 1.15625q-0.5468712 0.609375 -1.8124962 1.671875q-1.046875 0.890625 -1.359375 1.21875q-0.296875 0.3125 -0.484375 0.625l4.671871 0zm1.8968506 1.125l0 -1.328125l1.328125 0l0 1.328125q0 0.734375 -0.265625 1.1875q-0.25 0.453125 -0.8125 0.703125l-0.328125 -0.5q0.375 -0.171875 0.546875 -0.484375q0.171875 -0.3125 0.1875 -0.90625l-0.65625 0zm3.0623627 -2.5l1.234375 -0.109375q0.140625 0.90625 0.640625 1.359375q0.5 0.453125 1.203125 0.453125q0.84375 0 1.421875 -0.640625q0.59375 -0.640625 0.59375 -1.6875q0 -1.0 -0.5625 -1.578125q-0.5625 -0.59375 -1.484375 -0.59375q-0.5625 0 -1.015625 0.265625q-0.453125 0.25 -0.71875 0.671875l-1.09375 -0.15625l0.921875 -4.890625l4.75 0l0 1.109375l-3.8125 0l-0.515625 2.5625q0.859375 -0.59375 1.796875 -0.59375q1.25 0 2.109375 0.875q0.859375 0.859375 0.859375 2.21875q0 1.296875 -0.75 2.234375q-0.921875 1.15625 -2.5 1.15625q-1.3125 0 -2.140625 -0.71875q-0.8125 -0.734375 -0.9375 -1.9375zm8.506226 5.3125l-0.828125 0q1.9375 -3.125 1.9375 -6.265625q0 -1.21875 -0.28125 -2.421875q-0.21875 -0.984375 -0.609375 -1.875q-0.265625 -0.59375 -1.046875 -1.953125l0.828125 0q1.234375 1.640625 1.8125 3.28125q0.5 1.421875 0.5 2.96875q0 1.75 -0.671875 3.390625q-0.671875 1.640625 -1.640625 2.875z" fill-rule="nonzero"/><path fill="#000000" fill-opacity="0.0" d="m332.59842 45.354332l45.35434 0l0 22.677162l-45.35434 0z" fill-rule="evenodd"/><path fill="#000000" d="m344.69824 64.30541q-0.984375 -1.234375 -1.65625 -2.875q-0.65625 -1.640625 -0.65625 -3.390625q0 -1.546875 0.5 -2.96875q0.578125 -1.640625 1.8125 -3.28125l0.828125 0q-0.78125 1.359375 -1.03125 1.9375q-0.40625 0.890625 -0.625 1.875q-0.28125 1.21875 -0.28125 2.4375q0 3.140625 1.9375 6.265625l-0.828125 0zm3.67276 -7.984375q-0.734375 -0.265625 -1.09375 -0.765625q-0.34375 -0.5 -0.34375 -1.1875q0 -1.03125 0.75 -1.734375q0.75 -0.71875 1.984375 -0.71875q1.25 0 2.015625 0.734375q0.765625 0.71875 0.765625 1.75q0 0.671875 -0.359375 1.171875q-0.34375 0.484375 -1.046875 0.75q0.875 0.28125 1.328125 0.921875q0.46875 0.640625 0.46875 1.515625q0 1.234375 -0.875 2.0625q-0.859375 0.828125 -2.265625 0.828125q-1.421875 0 -2.28125 -0.828125q-0.859375 -0.84375 -0.859375 -2.09375q0 -0.921875 0.46875 -1.546875q0.46875 -0.640625 1.34375 -0.859375zm-0.234375 -1.984375q0 0.671875 0.4375 1.109375q0.4375 0.421875 1.125 0.421875q0.671875 0 1.109375 -0.421875q0.4375 -0.421875 0.4375 -1.046875q0 -0.640625 -0.453125 -1.078125q-0.4375 -0.4375 -1.109375 -0.4375q-0.671875 0 -1.109375 0.4375q-0.4375 0.421875 -0.4375 1.015625zm-0.375 4.40625q0 0.5 0.234375 0.96875q0.234375 0.46875 0.703125 0.734375q0.46875 0.25 1.015625 0.25q0.828125 0 1.375 -0.53125q0.546875 -0.546875 0.546875 -1.390625q0 -0.84375 -0.5625 -1.390625q-0.5625 -0.5625 -1.40625 -0.5625q-0.828125 0 -1.375 0.546875q-0.53125 0.546875 -0.53125 1.375zm6.8499756 2.75l0 -1.328125l1.328125 0l0 1.328125q0 0.734375 -0.265625 1.1875q-0.25 0.453125 -0.8125 0.703125l-0.328125 -0.5q0.375 -0.171875 0.546875 -0.484375q0.171875 -0.3125 0.1875 -0.90625l-0.65625 0zm3.2498474 -2.203125l1.125 -0.109375q0.140625 0.796875 0.546875 1.15625q0.40625 0.359375 1.03125 0.359375q0.53125 0 0.9375 -0.25q0.421875 -0.25 0.671875 -0.65625q0.265625 -0.421875 0.4375 -1.125q0.171875 -0.703125 0.171875 -1.421875q0 -0.078125 0 -0.234375q-0.359375 0.546875 -0.96875 0.90625q-0.59375 0.34375 -1.3125 0.34375q-1.1875 0 -2.015625 -0.859375q-0.8125 -0.859375 -0.8125 -2.265625q0 -1.453125 0.859375 -2.328125q0.859375 -0.890625 2.140625 -0.890625q0.9375 0 1.703125 0.5q0.78125 0.5 1.171875 1.4375q0.40625 0.921875 0.40625 2.671875q0 1.828125 -0.40625 2.921875q-0.390625 1.078125 -1.171875 1.640625q-0.78125 0.5625 -1.84375 0.5625q-1.109375 0 -1.828125 -0.609375q-0.703125 -0.625 -0.84375 -1.75zm4.796875 -4.21875q0 -1.0 -0.546875 -1.59375q-0.53125 -0.59375 -1.28125 -0.59375q-0.78125 0 -1.375 0.640625q-0.578125 0.640625 -0.578125 1.65625q0 0.90625 0.546875 1.484375q0.5625 0.5625 1.359375 0.5625q0.828125 0 1.34375 -0.5625q0.53125 -0.578125 0.53125 -1.59375zm3.5218506 9.234375l-0.828125 0q1.9375 -3.125 1.9375 -6.265625q0 -1.21875 -0.28125 -2.421875q-0.21875 -0.984375 -0.609375 -1.875q-0.265625 -0.59375 -1.046875 -1.953125l0.828125 0q1.234375 1.640625 1.8125 3.28125q0.5 1.421875 0.5 2.96875q0 1.75 -0.671875 3.390625q-0.671875 1.640625 -1.640625 2.875z" fill-rule="nonzero"/><path fill="#666666" d="m94.48819 204.09448l0 0c0 -2.0873718 1.6921539 -3.7795258 3.7795258 -3.7795258l0 0c1.0023956 0 1.9637299 0.39820862 2.6725311 1.1069946c0.70880127 0.70880127 1.1069946 1.6701508 1.1069946 2.6725311l0 0c0 2.087387 -1.6921463 3.7795258 -3.7795258 3.7795258l0 0c-2.0873718 0 -3.7795258 -1.6921387 -3.7795258 -3.7795258z" fill-rule="evenodd"/><path stroke="#595959" stroke-width="1.0" stroke-linejoin="round" stroke-linecap="butt" d="m94.48819 204.09448l0 0c0 -2.0873718 1.6921539 -3.7795258 3.7795258 -3.7795258l0 0c1.0023956 0 1.9637299 0.39820862 2.6725311 1.1069946c0.70880127 0.70880127 1.1069946 1.6701508 1.1069946 2.6725311l0 0c0 2.087387 -1.6921463 3.7795258 -3.7795258 3.7795258l0 0c-2.0873718 0 -3.7795258 -1.6921387 -3.7795258 -3.7795258z" fill-rule="evenodd"/><path fill="#666666" d="m132.28346 204.09448l0 0c0 -2.0873718 1.6921539 -3.7795258 3.7795258 -3.7795258l0 0c1.0023956 0 1.9637299 0.39820862 2.6725311 1.1069946c0.70880127 0.70880127 1.1069946 1.6701508 1.1069946 2.6725311l0 0c0 2.087387 -1.6921539 3.7795258 -3.7795258 3.7795258l0 0c-2.0873718 0 -3.7795258 -1.6921387 -3.7795258 -3.7795258z" fill-rule="evenodd"/><path stroke="#595959" stroke-width="1.0" stroke-linejoin="round" stroke-linecap="butt" d="m132.28346 204.09448l0 0c0 -2.0873718 1.6921539 -3.7795258 3.7795258 -3.7795258l0 0c1.0023956 0 1.9637299 0.39820862 2.6725311 1.1069946c0.70880127 0.70880127 1.1069946 1.6701508 1.1069946 2.6725311l0 0c0 2.087387 -1.6921539 3.7795258 -3.7795258 3.7795258l0 0c-2.0873718 0 -3.7795258 -1.6921387 -3.7795258 -3.7795258z" fill-rule="evenodd"/><path fill="#666666" d="m170.07874 204.09448l0 0c0 -2.0873718 1.6921539 -3.7795258 3.7795258 -3.7795258l0 0c1.0023956 0 1.9637299 0.39820862 2.6725311 1.1069946c0.70880127 0.70880127 1.1070099 1.6701508 1.1070099 2.6725311l0 0c0 2.087387 -1.6921539 3.7795258 -3.779541 3.7795258l0 0c-2.0873718 0 -3.7795258 -1.6921387 -3.7795258 -3.7795258z" fill-rule="evenodd"/><path stroke="#595959" stroke-width="1.0" stroke-linejoin="round" stroke-linecap="butt" d="m170.07874 204.09448l0 0c0 -2.0873718 1.6921539 -3.7795258 3.7795258 -3.7795258l0 0c1.0023956 0 1.9637299 0.39820862 2.6725311 1.1069946c0.70880127 0.70880127 1.1070099 1.6701508 1.1070099 2.6725311l0 0c0 2.087387 -1.6921539 3.7795258 -3.779541 3.7795258l0 0c-2.0873718 0 -3.7795258 -1.6921387 -3.7795258 -3.7795258z" fill-rule="evenodd"/><path fill="#666666" d="m170.07874 166.29921l0 0c0 -2.0873718 1.6921539 -3.7795258 3.7795258 -3.7795258l0 0c1.0023956 0 1.9637299 0.39819336 2.6725311 1.1069946c0.70880127 0.70880127 1.1070099 1.6701355 1.1070099 2.6725311l0 0c0 2.0873718 -1.6921539 3.7795258 -3.779541 3.7795258l0 0c-2.0873718 0 -3.7795258 -1.6921539 -3.7795258 -3.7795258z" fill-rule="evenodd"/><path stroke="#595959" stroke-width="1.0" stroke-linejoin="round" stroke-linecap="butt" d="m170.07874 166.29921l0 0c0 -2.0873718 1.6921539 -3.7795258 3.7795258 -3.7795258l0 0c1.0023956 0 1.9637299 0.39819336 2.6725311 1.1069946c0.70880127 0.70880127 1.1070099 1.6701355 1.1070099 2.6725311l0 0c0 2.0873718 -1.6921539 3.7795258 -3.779541 3.7795258l0 0c-2.0873718 0 -3.7795258 -1.6921539 -3.7795258 -3.7795258z" fill-rule="evenodd"/><path fill="#666666" d="m170.07874 132.28346l0 0c0 -2.0873718 1.6921539 -3.7795258 3.7795258 -3.7795258l0 0c1.0023956 0 1.9637299 0.39819336 2.6725311 1.1069946c0.70880127 0.70880127 1.1070099 1.6701355 1.1070099 2.6725311l0 0c0 2.0873718 -1.6921539 3.7795258 -3.779541 3.7795258l0 0c-2.0873718 0 -3.7795258 -1.6921539 -3.7795258 -3.7795258z" fill-rule="evenodd"/><path stroke="#595959" stroke-width="1.0" stroke-linejoin="round" stroke-linecap="butt" d="m170.07874 132.28346l0 0c0 -2.0873718 1.6921539 -3.7795258 3.7795258 -3.7795258l0 0c1.0023956 0 1.9637299 0.39819336 2.6725311 1.1069946c0.70880127 0.70880127 1.1070099 1.6701355 1.1070099 2.6725311l0 0c0 2.0873718 -1.6921539 3.7795258 -3.779541 3.7795258l0 0c-2.0873718 0 -3.7795258 -1.6921539 -3.7795258 -3.7795258z" fill-rule="evenodd"/><path fill="#666666" d="m170.07874 94.48819l0 0c0 -2.0873795 1.6921539 -3.7795258 3.7795258 -3.7795258l0 0c1.0023956 0 1.9637299 0.39819336 2.6725311 1.1069946c0.70880127 0.70880127 1.1070099 1.6701355 1.1070099 2.6725311l0 0c0 2.0873718 -1.6921539 3.7795258 -3.779541 3.7795258l0 0c-2.0873718 0 -3.7795258 -1.6921539 -3.7795258 -3.7795258z" fill-rule="evenodd"/><path stroke="#595959" stroke-width="1.0" stroke-linejoin="round" stroke-linecap="butt" d="m170.07874 94.48819l0 0c0 -2.0873795 1.6921539 -3.7795258 3.7795258 -3.7795258l0 0c1.0023956 0 1.9637299 0.39819336 2.6725311 1.1069946c0.70880127 0.70880127 1.1070099 1.6701355 1.1070099 2.6725311l0 0c0 2.0873718 -1.6921539 3.7795258 -3.779541 3.7795258l0 0c-2.0873718 0 -3.7795258 -1.6921539 -3.7795258 -3.7795258z" fill-rule="evenodd"/><path fill="#666666" d="m207.87401 94.48819l0 0c0 -2.0873795 1.6921539 -3.7795258 3.779541 -3.7795258l0 0c1.0023804 0 1.9637299 0.39819336 2.6725311 1.1069946c0.708786 0.70880127 1.1069946 1.6701355 1.1069946 2.6725311l0 0c0 2.0873718 -1.6921539 3.7795258 -3.7795258 3.7795258l0 0c-2.087387 0 -3.779541 -1.6921539 -3.779541 -3.7795258z" fill-rule="evenodd"/><path stroke="#595959" stroke-width="1.0" stroke-linejoin="round" stroke-linecap="butt" d="m207.87401 94.48819l0 0c0 -2.0873795 1.6921539 -3.7795258 3.779541 -3.7795258l0 0c1.0023804 0 1.9637299 0.39819336 2.6725311 1.1069946c0.708786 0.70880127 1.1069946 1.6701355 1.1069946 2.6725311l0 0c0 2.0873718 -1.6921539 3.7795258 -3.7795258 3.7795258l0 0c-2.087387 0 -3.779541 -1.6921539 -3.779541 -3.7795258z" fill-rule="evenodd"/><path fill="#666666" d="m245.6693 94.48819l0 0c0 -2.0873795 1.6921539 -3.7795258 3.7795258 -3.7795258l0 0c1.0023956 0 1.9637299 0.39819336 2.6725311 1.1069946c0.70880127 0.70880127 1.1069946 1.6701355 1.1069946 2.6725311l0 0c0 2.0873718 -1.6921539 3.7795258 -3.7795258 3.7795258l0 0c-2.0873718 0 -3.7795258 -1.6921539 -3.7795258 -3.7795258z" fill-rule="evenodd"/><path stroke="#595959" stroke-width="1.0" stroke-linejoin="round" stroke-linecap="butt" d="m245.6693 94.48819l0 0c0 -2.0873795 1.6921539 -3.7795258 3.7795258 -3.7795258l0 0c1.0023956 0 1.9637299 0.39819336 2.6725311 1.1069946c0.70880127 0.70880127 1.1069946 1.6701355 1.1069946 2.6725311l0 0c0 2.0873718 -1.6921539 3.7795258 -3.7795258 3.7795258l0 0c-2.0873718 0 -3.7795258 -1.6921539 -3.7795258 -3.7795258z" fill-rule="evenodd"/><path fill="#666666" d="m245.6693 56.692913l0 0c0 -2.0873756 1.6921539 -3.7795258 3.7795258 -3.7795258l0 0c1.0023956 0 1.9637299 0.39819717 2.6725311 1.1069946c0.70880127 0.70880127 1.1069946 1.6701393 1.1069946 2.6725311l0 0c0 2.0873756 -1.6921539 3.7795296 -3.7795258 3.7795296l0 0c-2.0873718 0 -3.7795258 -1.6921539 -3.7795258 -3.7795296z" fill-rule="evenodd"/><path stroke="#595959" stroke-width="1.0" stroke-linejoin="round" stroke-linecap="butt" d="m245.6693 56.692913l0 0c0 -2.0873756 1.6921539 -3.7795258 3.7795258 -3.7795258l0 0c1.0023956 0 1.9637299 0.39819717 2.6725311 1.1069946c0.70880127 0.70880127 1.1069946 1.6701393 1.1069946 2.6725311l0 0c0 2.0873756 -1.6921539 3.7795296 -3.7795258 3.7795296l0 0c-2.0873718 0 -3.7795258 -1.6921539 -3.7795258 -3.7795296z" fill-rule="evenodd"/><path fill="#666666" d="m283.46457 56.692913l0 0c0 -2.0873756 1.6921387 -3.7795258 3.7795105 -3.7795258l0 0c1.0024109 0 1.9637451 0.39819717 2.6725464 1.1069946c0.70880127 0.70880127 1.1069946 1.6701393 1.1069946 2.6725311l0 0c0 2.0873756 -1.6921387 3.7795296 -3.779541 3.7795296l0 0c-2.0873718 0 -3.7795105 -1.6921539 -3.7795105 -3.7795296z" fill-rule="evenodd"/><path stroke="#595959" stroke-width="1.0" stroke-linejoin="round" stroke-linecap="butt" d="m283.46457 56.692913l0 0c0 -2.0873756 1.6921387 -3.7795258 3.7795105 -3.7795258l0 0c1.0024109 0 1.9637451 0.39819717 2.6725464 1.1069946c0.70880127 0.70880127 1.1069946 1.6701393 1.1069946 2.6725311l0 0c0 2.0873756 -1.6921387 3.7795296 -3.779541 3.7795296l0 0c-2.0873718 0 -3.7795105 -1.6921539 -3.7795105 -3.7795296z" fill-rule="evenodd"/><path fill="#666666" d="m321.25986 56.692913l0 0c0 -2.0873756 1.6921387 -3.7795258 3.7795105 -3.7795258l0 0c1.0023804 0 1.9637451 0.39819717 2.6725464 1.1069946c0.70877075 0.70880127 1.1069946 1.6701393 1.1069946 2.6725311l0 0c0 2.0873756 -1.6921692 3.7795296 -3.779541 3.7795296l0 0c-2.0873718 0 -3.7795105 -1.6921539 -3.7795105 -3.7795296z" fill-rule="evenodd"/><path stroke="#595959" stroke-width="1.0" stroke-linejoin="round" stroke-linecap="butt" d="m321.25986 56.692913l0 0c0 -2.0873756 1.6921387 -3.7795258 3.7795105 -3.7795258l0 0c1.0023804 0 1.9637451 0.39819717 2.6725464 1.1069946c0.70877075 0.70880127 1.1069946 1.6701393 1.1069946 2.6725311l0 0c0 2.0873756 -1.6921692 3.7795296 -3.779541 3.7795296l0 0c-2.0873718 0 -3.7795105 -1.6921539 -3.7795105 -3.7795296z" fill-rule="evenodd"/><path fill="#000000" fill-opacity="0.0" d="m102.04724 204.09448l30.236221 0" fill-rule="evenodd"/><path stroke="#595959" stroke-width="1.0" stroke-linejoin="round" stroke-linecap="butt" d="m102.04724 204.09448l30.236221 0" fill-rule="evenodd"/><path fill="#000000" fill-opacity="0.0" d="m139.84251 204.09448l30.236221 0" fill-rule="evenodd"/><path stroke="#595959" stroke-width="1.0" stroke-linejoin="round" stroke-linecap="butt" d="m139.84251 204.09448l30.236221 0" fill-rule="evenodd"/><path fill="#000000" fill-opacity="0.0" d="m173.85826 200.31496l0 -30.236221" fill-rule="evenodd"/><path stroke="#595959" stroke-width="1.0" stroke-linejoin="round" stroke-linecap="butt" d="m173.85826 200.31496l0 -30.236221" fill-rule="evenodd"/><path fill="#000000" fill-opacity="0.0" d="m173.85826 162.51968l0 -26.456696" fill-rule="evenodd"/><path stroke="#595959" stroke-width="1.0" stroke-linejoin="round" stroke-linecap="butt" d="m173.85826 162.51968l0 -26.456696" fill-rule="evenodd"/><path fill="#000000" fill-opacity="0.0" d="m173.85826 128.50394l0 -30.236221" fill-rule="evenodd"/><path stroke="#595959" stroke-width="1.0" stroke-linejoin="round" stroke-linecap="butt" d="m173.85826 128.50394l0 -30.236221" fill-rule="evenodd"/><path fill="#000000" fill-opacity="0.0" d="m177.6378 94.48819l30.236206 0" fill-rule="evenodd"/><path stroke="#595959" stroke-width="1.0" stroke-linejoin="round" stroke-linecap="butt" d="m177.6378 94.48819l30.236206 0" fill-rule="evenodd"/><path fill="#000000" fill-opacity="0.0" d="m215.43307 94.48819l30.236221 0" fill-rule="evenodd"/><path stroke="#595959" stroke-width="1.0" stroke-linejoin="round" stroke-linecap="butt" d="m215.43307 94.48819l30.236221 0" fill-rule="evenodd"/><path fill="#000000" fill-opacity="0.0" d="m249.44882 90.708664l0 -30.236221" fill-rule="evenodd"/><path stroke="#595959" stroke-width="1.0" stroke-linejoin="round" stroke-linecap="butt" d="m249.44882 90.708664l0 -30.236221" fill-rule="evenodd"/><path fill="#000000" fill-opacity="0.0" d="m253.22835 56.692913l30.236221 0" fill-rule="evenodd"/><path stroke="#595959" stroke-width="1.0" stroke-linejoin="round" stroke-linecap="butt" d="m253.22835 56.692913l30.236221 0" fill-rule="evenodd"/><path fill="#000000" fill-opacity="0.0" d="m291.02362 56.692913l30.236237 0" fill-rule="evenodd"/><path stroke="#595959" stroke-width="1.0" stroke-linejoin="round" stroke-linecap="butt" d="m291.02362 56.692913l30.236237 0" fill-rule="evenodd"/></g></svg>